<svg xmlns="http://www.w3.org/2000/svg" width="182" height="177" viewBox="0 0 182 177">
  <path id="Vector" d="M91,0C40.73,0,0,39.611,0,88.5S40.73,177,91,177s91-39.611,91-88.5S141.27,0,91,0Zm0,34.258c17.833,0,32.29,14.06,32.29,31.4s-14.457,31.4-32.29,31.4S58.71,83,58.71,65.661,73.167,34.258,91,34.258Zm0,122.758a71.127,71.127,0,0,1-53.756-24.338,41.064,41.064,0,0,1,36.143-21.34,9.212,9.212,0,0,1,2.605.393,46.967,46.967,0,0,0,30.015,0,9.212,9.212,0,0,1,2.605-.393,41.064,41.064,0,0,1,36.143,21.34A71.127,71.127,0,0,1,91,157.016Z" fill="#0d2e45"/>
</svg>
