<svg xmlns="http://www.w3.org/2000/svg" width="27.75" height="24" viewBox="0 0 27.75 24">
    <g id="Group_2" data-name="Group 2" transform="translate(-16 -23)">
        <path id="Vector" d="M4.336,18.462H.867a.841.841,0,0,0-.613.27A.954.954,0,0,0,0,19.385v3.692a.954.954,0,0,0,.254.653A.841.841,0,0,0,.867,24H4.336a.841.841,0,0,0,.613-.27.954.954,0,0,0,.254-.653V19.385a.954.954,0,0,0-.254-.653A.841.841,0,0,0,4.336,18.462ZM4.336,0H.867A.841.841,0,0,0,.254.27.954.954,0,0,0,0,.923V4.615a.954.954,0,0,0,.254.653.841.841,0,0,0,.613.27H4.336a.841.841,0,0,0,.613-.27A.954.954,0,0,0,5.2,4.615V.923A.954.954,0,0,0,4.949.27.841.841,0,0,0,4.336,0Zm0,9.231H.867a.841.841,0,0,0-.613.27A.954.954,0,0,0,0,10.154v3.692a.954.954,0,0,0,.254.653.841.841,0,0,0,.613.27H4.336a.841.841,0,0,0,.613-.27.954.954,0,0,0,.254-.653V10.154A.954.954,0,0,0,4.949,9.5.841.841,0,0,0,4.336,9.231ZM26.883,19.385H9.539a.841.841,0,0,0-.613.27.954.954,0,0,0-.254.653v1.846a.954.954,0,0,0,.254.653.841.841,0,0,0,.613.27H26.883a.841.841,0,0,0,.613-.27.954.954,0,0,0,.254-.653V20.308a.954.954,0,0,0-.254-.653A.841.841,0,0,0,26.883,19.385Zm0-18.462H9.539a.841.841,0,0,0-.613.27.954.954,0,0,0-.254.653V3.692a.954.954,0,0,0,.254.653.841.841,0,0,0,.613.27H26.883a.841.841,0,0,0,.613-.27.954.954,0,0,0,.254-.653V1.846a.954.954,0,0,0-.254-.653.841.841,0,0,0-.613-.27Zm0,9.231H9.539a.841.841,0,0,0-.613.27.954.954,0,0,0-.254.653v1.846a.954.954,0,0,0,.254.653.841.841,0,0,0,.613.27H26.883a.841.841,0,0,0,.613-.27.954.954,0,0,0,.254-.653V11.077a.954.954,0,0,0-.254-.653A.841.841,0,0,0,26.883,10.154Z" transform="translate(16 23)" fill="#0d2e45" />
    </g>
</svg>