<svg xmlns="http://www.w3.org/2000/svg" width="18" height="21" viewBox="0 0 18 21">
    <path id="Vector" d="M3.346,5.25A2.706,2.706,0,0,0,2.96,6.7c0,.808.964,2.751.964,3.8a3.019,3.019,0,0,1-.386,1.575H2.092A3.019,3.019,0,0,0,2.478,10.5c0-1.05-.964-2.992-.964-3.8A2.706,2.706,0,0,1,1.9,5.25Zm4.821,0A2.706,2.706,0,0,0,7.78,6.7c0,.808.964,2.751.964,3.8a3.019,3.019,0,0,1-.386,1.575H9.805a3.019,3.019,0,0,0,.386-1.575c0-1.05-.964-2.992-.964-3.8A2.706,2.706,0,0,1,9.612,5.25Zm-3.133,0A2.706,2.706,0,0,0,4.647,6.7c0,.808.964,2.761.964,3.8a3.019,3.019,0,0,1-.386,1.575H6.672A3.019,3.019,0,0,0,7.057,10.5c0-1.05-.964-2.992-.964-3.8A2.706,2.706,0,0,1,6.479,5.25Zm12.842-.525S18,3.612,18,3.15A3.038,3.038,0,0,0,15.108,0a2.992,2.992,0,0,0-2.873,2.783L11.184,13.65H0C-.019,17.713,2.979,21,6.575,21c3.355,0,6.112-2.866,6.469-6.541L14.153,3.045a.99.99,0,0,1,.954-.945,1.013,1.013,0,0,1,.964,1.05c0,.315-.1,1.312-.1,1.312l1.9.262Z" fill="#fff" />
</svg>