<svg xmlns="http://www.w3.org/2000/svg" width="38" height="37" viewBox="0 0 38 37">
    <path id="Vector" d="M19,0A18.752,18.752,0,0,0,0,18.5,18.752,18.752,0,0,0,19,37,18.752,18.752,0,0,0,38,18.5,18.752,18.752,0,0,0,19,0Zm0,7.161a6.655,6.655,0,0,1,6.742,6.565,6.744,6.744,0,0,1-13.484,0A6.655,6.655,0,0,1,19,7.161Zm0,25.661A14.843,14.843,0,0,1,7.776,27.735a8.572,8.572,0,0,1,7.546-4.461,1.921,1.921,0,0,1,.544.082,9.8,9.8,0,0,0,6.267,0,1.921,1.921,0,0,1,.544-.082,8.572,8.572,0,0,1,7.546,4.461A14.843,14.843,0,0,1,19,32.823Z" fill="#0d2e45" />
</svg>